<?xml version="1.0" encoding="UTF-8"?>
<svg id="_图层_1" data-name="图层_1" xmlns="http://www.w3.org/2000/svg" viewBox="0 0 1090.3 880.29">
  <defs>
    <style>
      .cls-1 {
        fill: #00ff40;
      }

      .cls-2 {
        fill: #ff6b00;
      }
    </style>
  </defs>
  <path class="cls-1" d="M262.05,137.42c16.13,3.07,33.59,6.08,48.88-1.75,6.18-3.16,11.57-8.12,14.5-14.48s3.47-13.27,2.24-20c-2.62-14.35-13.42-24.98-26.66-30.2-15.07-5.93-31.72-4.52-47-.17-7.93,2.26-15.71,5.21-23.23,8.58-6.79,3.05-13.39,6.62-19.31,11.15s-10.79,9.59-14.48,15.79c-3.26,5.48-5.34,11.63-6.22,17.94-1.79,12.85,1.07,26.06,7.08,37.49,6.43,12.24,16.54,21.87,28.69,28.36,12.99,6.94,27.67,10.23,42.31,10.89,7.45.34,14.94,0,22.33-.95s15.41-2.46,22.59-5.46c3.55-1.49,6.93-3.33,10.01-5.64,1.53-1.14.03-3.75-1.51-2.59-6.03,4.51-13.1,7.15-20.39,8.82s-14.37,2.49-21.63,2.82c-14.08.64-28.37-.97-41.66-5.79-12.46-4.52-24.09-12.04-32.21-22.64-7.49-9.79-12.3-21.86-13.06-34.19s2.91-24.84,11.21-34.36c9.35-10.72,22.56-17.23,35.61-22.31,14.9-5.81,31.15-10.45,47.28-8.18,13.27,1.86,26.73,8.48,33.46,20.54,6.36,11.38,6.22,26.59-3.34,36.17-10.97,10.99-27.78,11.53-42.2,9.46-4.19-.6-8.35-1.39-12.51-2.18-1.89-.36-2.7,2.53-.8,2.89h0Z"/>
  <path class="cls-1" d="M260.7,135.3c-1.57,5.12.69,10.34,4.22,14.07,4.02,4.26,9.67,6.26,14.97,8.42,2.77,1.13,5.45,2.39,8,3.97s4.88,3.3,7.32,4.95,5.07,3.27,7.85,4.46,5.49,1.98,8.22,3c5.13,1.9,12.25,6.22,10.71,12.79l1.05-1.05c-.11.14-.18.11-.2-.08-1.18-1.52-3.29.61-2.12,2.12.76.98,2.38,1.41,3.47.7s1.05-2.68.98-3.82c-.18-2.77-1.44-5.27-3.21-7.37-4.08-4.85-10.46-6.24-16.12-8.38-6-2.27-10.88-6.43-16.26-9.79s-11.68-5.04-17.29-8.11c-5.22-2.86-10.69-8.62-8.7-15.08.57-1.85-2.33-2.64-2.89-.8h0Z"/>
  <path class="cls-1" d="M253.33,113.41c3.51,2.2,7.64,3.36,11.79,3.31,3.63-.04,8.74-.8,10.88-4.14,1.18-1.84,1-4.14.36-6.14-.53-1.68-1.24-3.94-2.84-4.91-1.85-1.13-4.62-.6-6.63-.28-2.21.35-4.42.95-6.51,1.74s-4.11,1.91-5.4,3.83-1.48,4.16-.55,6.2c.8,1.76,3.38.23,2.59-1.51-1.29-2.83,2.37-4.98,4.48-5.74,1.58-.57,3.22-1.04,4.86-1.38s3.46-.68,5.09-.44c1.23.18,1.7,2.3,2.02,3.3.45,1.41.74,3.08-.41,4.23-.98.99-2.47,1.4-3.77,1.72-1.48.37-2.99.53-4.51.52-3.53-.02-6.95-1.04-9.93-2.9-1.64-1.03-3.15,1.57-1.51,2.59h0Z"/>
  <path class="cls-1" d="M7.19,33.63c9.02,13.6,7.43,31.06,3.6,46.12C6.37,97.18-1.13,114.38.14,132.73c1.2,17.25,9.38,32.96,18.26,47.44,2.19,3.56,4.37,7.15,6.72,10.61,2.06,3.03,4.37,5.98,7.24,8.28,2.66,2.13,5.84,3.72,9.32,3.66s6.49-1.59,8.69-4.09c5.25-5.96,4.86-14.1,2.59-21.23-1.26-3.94-2.99-7.7-4.26-11.63-1.01-3.12-1.78-6.32-2.3-9.55-1.89-11.76-.6-26.29,9.44-34.21,6.17-4.87,14.29-5.83,21.86-4.67,7.98,1.22,16.08,4.19,23.13,8.11,3.38,1.88,6.62,4.24,8.86,7.44s3.42,6.89,4.05,10.7c1.33,8.01.56,16.24,1.59,24.29,1.09,8.5,3.36,16.79,6.74,24.66,3.21,7.47,7.37,14.71,12.77,20.82,4.88,5.52,11.09,10.33,18.33,12.18s14.18.46,20.1-3.51,10.18-9.87,12.71-16.43c2.97-7.69,2.94-16.2,1.4-24.21-3.41-17.75-14.15-32.67-20.96-49.13-3.51-8.48-5.55-17.27-5.99-26.45s.41-18.85,1.24-28.23c1.44-16.25,2.73-33.28-2.85-48.96-1.3-3.66-2.97-7.21-5.06-10.5s-4.49-6.54-7.86-8.44c-2.86-1.62-6.38-1.9-9.3-.28-2.45,1.36-3.99,3.84-5,6.37-2.63,6.6-1.86,13.97-2.27,20.9-.56,9.33-2.06,18.6-4.48,27.63-1.16,4.31-2.37,8.77-4.18,12.86-1.71,3.86-4.52,6.34-8.54,7.61-7.03,2.22-14.73,1.29-21.43-1.6s-12.98-7.88-17.78-13.67c-5.27-6.36-8.86-14.01-11.58-21.76-2.87-8.15-4.83-16.57-6.83-24.96-.95-3.98-1.74-8.1-3.15-11.95-1.34-3.64-3.49-6.9-7.01-8.73-6.42-3.33-14.51-2.4-20.9.48s-11.45,7.76-14.81,13.65-4.68,12.43-3.6,19.01c.31,1.9,3.2,1.09,2.89-.8C5.77,21.23,15.58,7.73,28.14,4.03c6.58-1.94,15.51-1.53,19.22,5.14,1.89,3.41,2.6,7.47,3.51,11.22,1,4.13,1.96,8.28,3,12.4,3.92,15.61,9.15,31.78,21.03,43.24,10.17,9.81,25.99,16.76,39.92,10.96,3.68-1.53,6.48-4.13,8.2-7.74,1.86-3.89,3.07-8.17,4.24-12.31,2.48-8.8,4.1-17.84,4.86-26.95.36-4.29.37-8.56.51-12.85.09-2.94.42-5.89,1.26-8.72.7-2.36,1.84-4.97,4.04-6.29,2.89-1.74,6.22-.44,8.54,1.64,2.84,2.55,4.96,5.96,6.72,9.31s3.13,7.01,4.13,10.71c2.04,7.52,2.66,15.34,2.63,23.11-.08,17.91-3.94,35.73-2.14,53.65.89,8.85,3.38,17.21,6.95,25.34s7.76,15.52,11.55,23.33c7.03,14.48,13.3,32.52,5.73,48.04-2.97,6.09-7.76,11.49-14.02,14.28s-13.7,2.1-19.84-1.15c-6.56-3.48-11.81-9.16-15.9-15.27-4.67-6.99-8.28-14.7-10.76-22.73s-3.68-16.28-3.91-24.67c-.21-7.65-.07-15.65-3.29-22.77s-9.9-11.41-16.82-14.49c-7.38-3.29-15.22-6-23.34-6.51-7.48-.47-14.97,1.38-20.8,6.22-4.57,3.79-7.55,9.18-9.12,14.85-1.69,6.12-1.89,12.63-1.16,18.92.38,3.24.98,6.46,1.83,9.61.95,3.53,2.31,6.91,3.61,10.32,2.66,6.96,5.16,15.27.31,21.9-1.89,2.58-4.78,4.14-8,3.92s-6.25-2.43-8.53-4.73c-2.56-2.59-4.57-5.62-6.52-8.68-2.29-3.59-4.56-7.19-6.74-10.85-4.35-7.29-8.4-14.82-11.36-22.79s-4.76-16.17-4.69-24.61c.07-8.91,2.1-17.64,4.52-26.16,4.52-15.95,10.52-31.99,9.11-48.86-.62-7.42-2.71-14.67-6.85-20.91-1.06-1.6-3.66-.1-2.59,1.51h0Z"/>
  <path class="cls-1" d="M378.08,17.61c-4.69-4.45-11.5-4.8-17.3-2.46-6.6,2.66-11.23,7.96-13.41,14.69-2.64,8.17-1.77,17-.65,25.35.5,3.71.8,7.8,3.29,10.81s6.26,3.3,9.8,3.84c3.32.5,6.29,1.6,7.69,4.88,1.25,2.9,1.11,6.31.79,9.38-.44,4.13-1.42,8.21-2.06,12.31-.74,4.74-1.36,9.51-1.83,14.28-1.92,19.21-1.61,38.65.92,57.79.61,4.63,1.33,9.26,2.21,13.85.8,4.16,1.87,8.43,4.28,11.98,3.87,5.71,10.27,8.56,16.93,9.51,7.05,1.01,14.23.38,21.26-.58s15.35-3.54,16.72-11.58c.52-3.05-.09-6.42-2.54-8.52-3.05-2.61-7.15-2.13-10.86-2.63-6.55-.89-12.56-4.29-17.16-8.97s-7.88-10.71-9.15-17.17c-.62-3.18-.74-6.52-.21-9.73.67-4.11,2.33-7.98,4.08-11.73,1.86-3.98,3.85-7.94,5.11-12.16s1.84-8.57,1.89-12.93c.11-9.04-2.01-18.02-4.97-26.52s-6.97-17.04-10.36-25.6c-3.18-8.03-6.47-16.74-6.57-25.49-.05-3.93.7-7.79,2.77-11.18,1.01-1.65-1.58-3.16-2.59-1.51-4.21,6.88-3.59,15.34-1.79,22.88,2.06,8.62,5.51,16.83,8.95,24.97,6.7,15.85,14.27,33.3,10.7,50.89-1.72,8.48-6.78,15.63-9.25,23.85-1.9,6.33-1.63,13.13.5,19.37,4.18,12.23,14.98,22.4,28.05,24.03,3.13.39,7.63-.23,9.67,2.76,1.62,2.37.97,5.75-.44,8.05-1.89,3.09-5.62,4.5-8.99,5.27s-7.2,1.16-10.8,1.45c-6.61.54-13.61.61-19.9-1.78-2.9-1.11-5.53-2.88-7.54-5.26-2.61-3.1-3.77-7.1-4.59-11-3.81-18.12-5.03-36.98-4.43-55.47.3-9.35,1.11-18.7,2.47-27.95.63-4.27,1.5-8.49,2.17-12.74.51-3.26.79-6.55.29-9.83-.46-3-1.77-5.86-4.23-7.73-2.87-2.18-6.43-2.23-9.82-2.86-1.59-.3-3.22-.74-4.42-1.88-1.35-1.27-1.93-3.1-2.31-4.87-.86-3.93-1.24-8.07-1.55-12.07-.6-7.68-.35-16.4,4.27-22.94,3.39-4.79,9.46-8.17,15.38-7.98,2.78.09,5.39,1.12,7.42,3.04,1.4,1.33,3.53-.79,2.12-2.12h0Z"/>
  <path class="cls-1" d="M454.31,23.04c-7.89-.08-16.09-.1-23.49,3-6.13,2.57-11.6,7.73-13.35,14.29-3.63,13.53,10.4,20.78,18.53,28.5,10.63,10.1,10.91,25.31,11.02,39,.15,17.9.25,35.81.44,53.71.16,14.7,1.57,31.46,14.31,41.05,5.07,3.82,11.35,5.39,17.58,4.04,5.84-1.26,11.08-4.85,14.64-9.6,1.76-2.34,3.09-5.06,3.78-7.91.73-3.02,1.05-6.77-.42-9.62-.84-1.64-2.41-2.66-3.91-3.63s-2.85-1.97-4.16-3.14c-2.58-2.31-4.81-4.98-6.67-7.89-8.79-13.74-9.05-30.52-8.9-46.29.17-17.94.37-35.88.56-53.82.15-14.56,2.29-33.61-11.41-43.16-2.63-1.83-5.66-2.91-8.85-3.16-1.93-.15-1.92,2.85,0,3,6.37.5,11.4,5.44,14.1,10.93,3.42,6.96,3.33,15.14,3.25,22.71-.17,17.28-.36,34.57-.54,51.85-.17,15.91-1.41,32.73,3.79,48.05,2.16,6.35,5.4,12.38,9.95,17.34,2.27,2.48,4.88,4.56,7.7,6.38,1.51.98,2.62,1.97,2.93,3.82.24,1.42.18,2.97-.04,4.39-1.68,11.01-14.07,19.71-24.98,16.63-6.15-1.74-10.95-6.5-14.06-11.93-3.74-6.53-4.99-14.1-5.43-21.51-.49-8.32-.32-16.69-.39-25.02s-.14-17.05-.21-25.57c-.06-7.72.09-15.47-.43-23.18-.45-6.75-1.53-13.55-4.39-19.73-2.65-5.72-6.96-9.95-11.8-13.87-4.31-3.48-9.22-6.92-11.92-11.9-3-5.54-1.56-11.87,2.53-16.44,4.83-5.4,11.85-7.49,18.87-8.09,3.77-.33,7.56-.3,11.34-.26,1.93.02,1.93-2.98,0-3h0Z"/>
  <path class="cls-1" d="M581.15,76.41c-14.91-5.15-31.27-5.73-46.57-1.92-7.62,1.89-15.01,4.89-21.74,8.94s-12.26,9.5-13.61,17.5.7,15.82,2.54,23.43c1.71,7.09,3.53,14.16,5.79,21.09,4.39,13.46,10.57,26.82,20.86,36.82,11.23,10.92,26.23,15.95,41.39,18.43,7.66,1.25,15.41,2.04,23.14,2.62,7.14.54,14.34.69,21.44-.38s13.46-3.42,18.8-7.88c5.92-4.94,9.29-12.07,11.38-19.35,4.33-15.1,5.15-31.59,2.05-47-3-14.87-10.06-28.92-21.32-39.23-10.47-9.59-24.11-15.99-38.39-16.58-3.49-.14-6.97.11-10.41.67-1.9.31-1.09,3.2.8,2.89,13.48-2.2,27.27,1.79,38.48,9.32,11.91,7.99,20.51,19.86,25.15,33.37,4.93,14.34,5.62,29.97,3.16,44.87-1.2,7.3-2.92,14.86-6.66,21.32-3.44,5.94-8.78,10.27-15.22,12.6s-13.12,2.86-19.81,2.82c-7.09-.04-14.18-.75-21.22-1.52-14.76-1.61-30.06-4.38-42.68-12.67-11.54-7.59-19.25-19.44-24.43-32.03-2.67-6.51-4.78-13.24-6.62-20.02s-3.78-13.91-4.97-20.97-1.17-15.37,3.97-21.25c2.41-2.76,5.45-4.84,8.59-6.68s6.72-3.61,10.26-5c14.02-5.53,29.63-7.05,44.44-4.16,3.6.7,7.14,1.66,10.6,2.86,1.83.63,2.61-2.26.8-2.89h0Z"/>
  <path class="cls-1" d="M575.55,117.67c-12.62-2.91-27.29,2.36-34,13.75-3.34,5.66-4.24,12.84-.37,18.49,3.49,5.1,9.42,7.92,15.17,9.67,7.76,2.36,15.88,3.4,23.94,4.09,7.42.63,15.23,1.32,22.46-.89,6.19-1.89,11.45-6.18,13.77-12.33,2.15-5.72.45-11.9-4.18-15.83s-10.5-5.55-15.97-7.74c-6.55-2.63-12.63-6.53-17.8-11.35-1.32-1.23-2.57-2.52-3.77-3.85-1.29-1.44-3.41.69-2.12,2.12,4.39,4.88,9.55,9.06,15.25,12.31,5.23,2.98,10.94,4.65,16.39,7.13,4.6,2.1,9.46,5.31,10.11,10.79s-3.04,10.83-7.5,13.65c-5.69,3.6-12.87,3.82-19.39,3.51-7.35-.34-14.77-1.05-22-2.44-6.12-1.18-12.55-2.74-17.73-6.37-4.89-3.43-7.29-8.86-5.69-14.73,1.81-6.63,7.24-11.78,13.26-14.75s12.9-3.81,19.38-2.31c1.88.43,2.68-2.46.8-2.89h0Z"/>
  <path class="cls-2" d="M47.09,279.99c-4.9-8.9-16.77-9.34-24.33-3.64-4.41,3.32-7.2,8.4-8.98,13.53-2.03,5.86-2.8,12.13-3.12,18.3-1.47,28.31,4.66,56.53,12.97,83.43,4.21,13.64,9.03,27.08,13.89,40.5,1.9,5.24,3.98,10.46,6.8,15.29,2.54,4.35,5.77,8.64,10.17,11.24s9.29,2.98,13.83,1.13c5.15-2.11,9.07-6.55,11.67-11.36,6.53-12.05,5.13-26.65,6.08-39.86,1.91-26.68,9.4-53.1,22.22-76.6,1.5-2.76,3.09-5.47,4.73-8.14l-2.74-.36c2.45,12.64,4.36,25.39,5.69,38.2s1.59,24.43,3.19,36.56c1.44,10.96,4.09,22.05,10.32,31.35,5.13,7.66,12.74,14.43,22.19,15.64,9.77,1.25,18.62-4.08,25.26-10.78,7.52-7.59,13.02-17.05,17.9-26.48,10.25-19.82,17.12-41.35,20.62-63.37,1.8-11.28,2.74-22.69,2.77-34.11.01-5.65-.19-11.29-.63-16.93-.22-2.81-.49-5.62-.82-8.42-.31-2.58-.62-5.31-2.08-7.54-2.24-3.44-6.33-4.61-10.23-3.81-4.47.91-7.72,4.21-9.67,8.2-2.37,4.84-3.11,10.23-3.85,15.5-.87,6.19-1.9,12.36-3.15,18.49s-2.69,12.27-4.33,18.33c-1.47,5.44-3,10.92-5.1,16.15-3.27,8.15-9.19,17.45-19.1,17.08-3.93-.15-7.58-2.11-9.51-5.6-1.28-2.32-1.73-5.02-2.1-7.61-.41-2.94-.79-5.87-1.41-8.78-2.4-11.37-7.15-22.08-12.45-32.37-2.56-4.97-5.13-9.99-8.03-14.77-2.6-4.28-5.6-8.49-9.34-11.85-3.19-2.86-7.11-5.22-11.5-5.32-4.15-.09-8.09,1.94-10.81,5-6.09,6.85-7.42,16.81-9.67,25.35-2.85,10.85-7.22,21.28-13.04,30.87-2.75,4.53-5.81,8.85-9.19,12.92l2.36.3c-8.03-17.8-12.46-37.21-13.29-56.71-.24-5.54-.18-11.09.16-16.63.12-1.93-2.88-1.92-3,0-1.23,19.99,1.28,40.25,7.5,59.29,1.73,5.29,3.75,10.49,6.04,15.56.38.84,1.78,1,2.36.3,6.9-8.3,12.56-17.57,16.86-27.47,2.17-4.99,4.02-10.11,5.51-15.35,1.3-4.58,2.25-9.25,3.58-13.82,2.07-7.11,6.04-17.2,15.1-16.61,4.26.28,7.93,3.25,10.75,6.2,3.39,3.54,6.1,7.7,8.5,11.95,5.52,9.78,10.85,19.86,14.75,30.41,1.97,5.33,3.54,10.8,4.52,16.4.89,5.12.84,10.89,3.93,15.32,4.75,6.81,14.36,7.53,21.15,3.46,8.53-5.1,12.31-15.82,15.05-24.8,3.54-11.63,6.29-23.5,8.34-35.48.95-5.58,1.5-11.24,2.65-16.78.92-4.45,2.43-9.79,6.33-12.57,2.77-1.97,7.11-2.82,9.84-.31,1.77,1.63,2.2,4.16,2.49,6.44.35,2.72.61,5.46.83,8.2.9,11.04.92,22.15.11,33.2-1.61,21.84-6.54,43.47-14.71,63.8-4.02,10-8.84,19.76-14.55,28.91-5.15,8.25-11.6,16.67-20.43,21.2-3.97,2.03-8.48,3.03-12.93,2.47s-8.39-2.55-11.78-5.23c-7.84-6.19-12.63-15.45-15.29-24.91-3.18-11.33-3.79-23.15-4.62-34.83-.87-12.34-2.2-24.63-4.07-36.85-.9-5.94-1.93-11.87-3.08-17.77-.26-1.32-2.11-1.39-2.74-.36-13.36,21.65-21.99,46.17-25.72,71.31-.95,6.43-1.6,12.9-1.92,19.39s-.29,13.46-1.24,20.12c-.87,6.05-2.57,11.98-6.16,17-2.85,3.99-7.2,7.62-12.31,7.81-10.06.37-15.99-10.7-19.49-18.54-2.47-5.54-4.38-11.33-6.43-17.04-2.26-6.32-4.49-12.65-6.62-19.01-8.66-25.86-15.86-52.56-16.94-79.95-.26-6.54-.26-13.15.38-19.67.55-5.66,1.66-11.46,4.15-16.61,2.16-4.47,5.34-8.5,10.05-10.4,3.81-1.54,8.36-1.72,12.01.35,1.86,1.06,3.27,2.6,4.3,4.47.93,1.69,3.52.18,2.59-1.51h0Z"/>
  <path class="cls-2" d="M292.43,343.26c-3.7-3.95-8.21-7.16-13.18-9.33s-10.87-3.83-16.34-3.1c-5.82.78-9.31,5.31-12.54,9.77s-6.3,9.47-8.85,14.55c-5.15,10.2-8.72,21.2-10.46,32.5-.88,5.71-1.54,11.63-1.08,17.4s2.32,10.95,6.08,15.32c3.53,4.11,8.17,7.25,12.86,9.9s9.77,4.79,14.96,6.35c10.56,3.17,21.77,3.96,32.67,2.38,5.39-.78,10.78-2.14,15.8-4.26s9.27-5.68,11.61-10.9,3.35-11.37,3.86-17.19c.57-6.4.41-12.84.04-19.25-.33-5.71-.39-11.77-2.05-17.29s-5.21-9.25-9.94-12.24c-8.46-5.34-18.01-9.76-23.95-18.18-1.41-1.99-2.55-4.14-3.35-6.44-.63-1.81-3.53-1.03-2.89.8,3.17,9.13,10.76,15.4,18.68,20.43,4.24,2.69,8.97,4.85,12.89,8.01,4.24,3.41,6.01,8.13,6.71,13.4.76,5.68.99,11.51,1.17,17.23.19,6.02.08,12.1-.84,18.07-.8,5.21-1.98,10.87-5.24,15.16s-8.71,6.22-13.74,7.68c-19.87,5.79-42.19,2.41-59.39-9.13-4.26-2.86-8.32-6.37-10.66-11.02-2.51-5-2.61-10.82-2.27-16.28.65-10.79,3.06-21.47,6.96-31.55,1.95-5.05,4.3-9.94,7-14.63s5.59-9.24,9.09-13.24c1.75-2,3.76-3.65,6.41-4.23s5.55-.19,8.2.37c5,1.04,9.73,3.12,13.92,6.05,2.09,1.47,4,3.17,5.75,5.03,1.32,1.41,3.44-.71,2.12-2.12h0Z"/>
  <path class="cls-2" d="M279.91,363.78c-11.11,2.18-16.13,14.67-17.29,24.7-.67,5.78-.12,11.93,2.72,17.11,2.84,5.18,7.82,8.46,13.18,10.61,6.11,2.45,12.76,3.79,19.23,4.89,1.75.3,3.5.56,5.25.8s3.5.45,5.22-.02c2.32-.63,4.03-2.39,4.99-4.54,1.03-2.33,1.34-4.93,1.39-7.45.06-3.08-.05-6.18-.27-9.25-.45-6.37-1.57-12.74-4.1-18.64-4.93-11.48-17.15-21.2-30.21-18.02-1.87.46-1.08,3.35.8,2.89,9.9-2.41,19.84,4.15,24.72,12.46,2.96,5.04,4.53,10.8,5.31,16.56.39,2.86.58,5.75.68,8.63.09,2.54.21,5.13-.06,7.66-.21,1.94-.68,4.14-2.05,5.61-1.97,2.12-5.25,1.29-7.76.92-6.15-.91-12.32-2.15-18.27-3.97-4.93-1.51-9.89-3.67-13.36-7.63s-4.7-9.45-4.65-14.65c.1-9.77,4.3-23.61,15.34-25.77,1.89-.37,1.09-3.26-.8-2.89h0Z"/>
  <path class="cls-2" d="M344.86,339.2c-2.6,27.1-5.17,55.19,2.17,81.8.89,3.23,1.93,6.43,3.13,9.56.96,2.52,1.96,5.91,4.83,6.85,2.71.88,5.75-.75,7.86-2.36s3.66-3.56,4.85-5.81c6.27-11.84.3-24.47-2.78-36.25-1.72-6.58-2.78-13.58-2.49-20.39.2-4.62,1.24-9.99,4.71-13.33,4.43-4.27,10.94-2.3,15.15,1.25,2.51,2.11,4.56,4.69,6.64,7.21s4.2,4.86,6.6,7.01c4.62,4.14,9.9,7.54,15.61,9.99,2.6,1.11,6.02,2.9,8.84,1.58,2.61-1.22,3.08-4.27,3.26-6.84.77-11.01-2.62-22.38-9.34-31.14-3.31-4.32-7.41-8.01-12.16-10.67-5.66-3.16-12.17-5.28-18.45-6.85-4.84-1.21-10.4-2.04-15.2-.19-2.43.94-4.28,2.47-5.83,4.55-.47.62-1.67,2.58-2.58,2.48-.34-.03-.54-.57-.65-.83-.44-.98-.75-2.04-1.12-3.05-1.23-3.35-2.46-6.69-3.69-10.04-.3-.81-1.36-1.53-2.2-.9-6.51,4.89-7.51,15.12-1.81,21.05,1.34,1.4,3.46-.73,2.12-2.12-4.24-4.42-3.76-12.61,1.21-16.34l-2.2-.9c1.26,3.42,2.51,6.84,3.77,10.26.87,2.37,1.74,6.31,5.11,5.79,2.62-.4,3.83-3.16,5.47-4.88s3.73-2.56,5.98-2.93c4.99-.81,10.22.62,14.94,2.11,6.05,1.91,12.11,3.94,17.29,7.71,8.73,6.35,14.22,16.56,15.93,27.1.43,2.63.58,5.3.51,7.96-.05,1.92.19,6.15-2.61,6.11-1.43-.02-2.97-.78-4.27-1.3-1.42-.57-2.81-1.21-4.17-1.9-2.71-1.38-5.3-2.98-7.75-4.78s-4.85-3.93-7-6.19-4.13-4.86-6.23-7.26c-3.86-4.43-8.99-8.63-15.2-8.53-11.36.19-14,13.57-13.66,22.51.26,6.98,1.47,13.89,3.45,20.58s4.41,12.9,4.63,19.68c.16,4.9-1.09,10.26-4.33,14.07-1.5,1.76-3.82,3.73-6.22,4.01-1.5.17-2.22-.95-2.8-2.16-.68-1.41-1.2-2.92-1.73-4.39-9.14-25.23-7.82-52.69-5.49-78.97.29-3.31.61-6.61.92-9.92.18-1.92-2.82-1.91-3,0h0Z"/>
  <path class="cls-2" d="M473.14,279.16c-4.22-4.45-10.52-6.01-16.46-5.1-6.31.97-11.62,5-14.8,10.47-3.34,5.73-4.33,12.61-3.21,19.11.65,3.73,2.08,7.33,4.26,10.44s4.65,5.48,7.14,8.07c4.71,4.88,8.27,10.3,10.14,16.86s2.08,13.06,1.55,19.62-2.01,13.54-3.86,20.11c-2.05,7.28-4.78,14.33-6.86,21.59s-3.67,15.22-2.77,22.91c.71,6.06,2.82,12.04,6.55,16.92s8.8,8.45,14.79,9.16c5.56.66,11.29-1.46,15.46-5.1s6.56-8.9,5.51-14.36c-1.16-6.04-5.98-10.32-9.4-15.12-1.73-2.43-3.2-5.13-3.39-8.17-.24-3.71,1.1-7.3,2.53-10.67s3.02-6.76,4.02-10.34,1.49-6.94,1.71-10.47c.91-14.71-3.57-29.12-5.98-43.48-1.24-7.37-1.89-14.81-1.22-22.28s2.3-14.91,1.59-22.4c-.34-3.55-1.21-6.96-2.81-10.16-.86-1.73-3.45-.21-2.59,1.51,3.23,6.46,2.79,13.86,2,20.83s-1.79,14.21-1.31,21.46c.94,14.27,5.38,27.99,6.93,42.17.75,6.79.81,13.74-.79,20.42-.83,3.48-2.19,6.74-3.61,10.01s-2.83,6.55-3.31,10.09c-.86,6.32,2.18,11.29,5.98,16.02,3.31,4.12,7.53,8.75,6.86,14.46-.6,5.07-4.74,9.06-9.18,11.11-5.01,2.32-10.51,1.96-15.23-.87s-8.36-7.94-10.29-13.26c-2.29-6.31-2.48-13.02-1.44-19.61,1.22-7.73,3.85-15.13,6.33-22.52,2.06-6.13,3.88-12.35,5.16-18.69,2.48-12.34,3.12-25.68-2.11-37.42-1.27-2.85-2.9-5.52-4.83-7.98-2.14-2.74-4.67-5.13-7.04-7.66s-4.69-5.36-6.07-8.67-1.95-6.84-1.87-10.36c.15-6.1,2.47-12.29,6.99-16.49,4.22-3.92,10.38-5.48,15.97-4.05,2.63.68,4.97,2.01,6.85,3.98,1.33,1.4,3.45-.72,2.12-2.12h0Z"/>
  <path class="cls-2" d="M608.96,279.36c-3.97-5.72-12.3-4.61-16.95-.35-6.2,5.67-5.53,15.56-5.37,23.16.22,10.2.45,20.39.67,30.59.06,2.53.12,5.06.16,7.59.03,2.14.05,4.44-.99,6.38-1.67,3.12-5.55,4.22-8.82,4.65-7.99,1.05-16.24-.1-24.22-.77s-15.71-1.15-23.31.75-13.99,6.42-18.06,13.04-5.79,15.28-5.48,23.32c.37,9.69,3.04,19.2,5.67,28.48,2.06,7.27,4.67,14.91,10.15,20.35,6.07,6.03,14.56,7.41,22.77,7.64,9.98.28,20,.03,29.97-.26,5.03-.15,10.07-.34,15.09-.59,4.56-.22,9.17-.37,13.67-1.21,4.12-.76,8.07-2.26,11.4-4.83,3.12-2.41,5.59-5.55,7.57-8.95,4.36-7.47,7.01-16.15,9.07-24.5,2.18-8.86,3.47-17.94,4.07-27.04,1.22-18.54-.45-37.16-3.19-55.5-1.37-9.18-3.01-18.33-4.8-27.44-1.47-7.44-4.17-16.14-12.51-18.16-3.31-.8-6.76-.21-9.3,2.12-1.43,1.31.7,3.42,2.12,2.12,2.38-2.19,5.99-1.9,8.71-.5,3.29,1.69,5.21,4.95,6.38,8.36,1.34,3.9,1.96,8.04,2.72,12.08.83,4.39,1.62,8.79,2.37,13.2,2.94,17.49,5.07,35.19,4.91,52.95-.15,17.53-2.66,35.09-8.85,51.54-2.58,6.86-6.07,14.23-12.46,18.33-3.45,2.21-7.5,3.22-11.54,3.71-4.48.54-9.03.66-13.54.86-9.65.43-19.31.68-28.96.74-4.57.03-9.15.09-13.72-.07-3.97-.15-7.97-.54-11.76-1.81-7.39-2.47-11.92-8.65-14.7-15.65-1.35-3.41-2.37-6.94-3.34-10.48-1.25-4.55-2.49-9.11-3.43-13.74-1.71-8.36-2.39-17.08-.02-25.38,2.05-7.17,6.35-13.55,12.96-17.2s13.95-4.05,21.14-3.82c7.72.25,15.39,1.36,23.11,1.58,6.44.19,15.45.49,19.88-5.15,2.64-3.37,2.3-7.77,2.21-11.8-.11-4.81-.21-9.62-.32-14.42s-.21-9.78-.32-14.67c-.1-4.53-.33-9.07-.21-13.6.18-6.82,2.04-14.97,9.8-16.47,2.55-.49,5.44.06,7,2.31,1.09,1.58,3.69.08,2.59-1.51h0Z"/>
  <path class="cls-2" d="M583.48,378.73c-6.3-1.2-12.72-1.71-19.13-1.43-5.12.23-10.26.86-15.11,2.57-8.11,2.86-16.28,9.26-15.54,18.78s9.69,16.02,18.21,18.26c10.11,2.65,21.64.12,30.32-5.46,4.68-3.01,10.39-7.48,10.49-13.57s-4.86-10.64-9.06-14.14c-1.47-1.23-3.61.88-2.12,2.12,3.34,2.78,7.51,6.34,8.13,10.93.65,4.82-3.95,8.56-7.45,11.05-7.68,5.46-17.74,8.22-27.12,6.68-7.52-1.23-16.12-6.15-18.09-14.04s4.68-14.38,11.58-17.18c4.64-1.88,9.57-2.65,14.55-2.94,6.54-.39,13.1.03,19.54,1.26,1.89.36,2.69-2.53.8-2.89h0Z"/>
  <path class="cls-1" d="M71.35,675.22c10.26-16.47,19.42-33.62,27.39-51.31,3.97-8.82,7.66-17.78,11.04-26.85,3.2-8.58,5.89-17.32,8.87-25.97,2.5-7.27,5.61-14.8,11.37-20.13,2.57-2.38,7.28-6.18,10.64-3.21,1.52,1.34,2.61,3.21,3.67,4.91s1.96,3.35,2.82,5.09c7.14,14.51,8.09,31.13,8.76,47.01s.86,33.14,5.9,48.88c.62,1.94,1.33,3.86,2.1,5.75.45,1.11,2.07,1.6,2.74.36,8.98-16.54,16.93-33.63,23.8-51.15s12.58-35.22,17.21-53.33c2.64-10.31,4.9-20.7,6.81-31.17h-2.89c6.45,15.49,9.1,32.17,11.24,48.72,2.13,16.45,3.77,33.11,8.36,49.11,2.54,8.87,6.04,17.49,10.83,25.39,1,1.65,3.6.14,2.59-1.51-8.54-14.07-12.58-30.15-15.18-46.26-2.65-16.47-3.92-33.14-7.15-49.51-1.8-9.12-4.23-18.13-7.8-26.72-.5-1.19-2.59-1.64-2.89,0-3.35,18.39-7.83,36.57-13.42,54.4-5.59,17.86-12.29,35.37-20.06,52.39-4.35,9.54-9.04,18.92-14.04,28.14l2.74.36c-6.48-15.8-7.06-33.08-7.74-49.91s-1.21-33.38-7.64-48.71c-1.6-3.81-3.53-7.48-5.86-10.9-1.14-1.68-2.38-3.42-4.15-4.48-1.97-1.18-4.32-1.19-6.44-.4-7.53,2.83-12.6,10.39-15.8,17.39-3.61,7.89-5.83,16.36-8.65,24.54-3.25,9.41-6.81,18.71-10.7,27.87-7.83,18.42-16.94,36.29-27.24,53.45-1.26,2.1-2.53,4.18-3.83,6.26-1.02,1.64,1.57,3.15,2.59,1.51h0Z"/>
  <path class="cls-1" d="M266.83,589.62c-1.92,13.36-1.73,27.29,2.37,40.25,3.81,12.04,11.13,23.12,22.2,29.56,9.84,5.72,22.13,8.04,33.22,4.99,5.38-1.48,10.39-4.3,14.31-8.28,4.34-4.41,7.31-9.93,9.13-15.82,3.85-12.45,3.1-25.82,3.66-38.68.07-1.62.16-3.24.28-4.86h-3c-.04,24.2-3.59,48.34-10.43,71.55-6.81,23.14-16.86,45.32-29.85,65.65-3.26,5.1-6.69,10.09-10.31,14.93-3.37,4.5-7.02,8.86-11.27,12.56s-8.93,6.52-14.26,7.73c-4.56,1.04-10.06.72-13.83-2.34-2.19-1.77-3.35-4.31-4.11-6.96-.89-3.1-1.46-6.31-2.16-9.46-1.47-6.73-3.04-13.44-4.42-20.19-.29-1.4-.55-2.97.33-4.22.62-.89,1.62-1.45,2.61-1.84,2.44-.97,5.16-1.19,7.73-1.62,6.29-1.07,12.55-2.34,18.75-3.82,24.51-5.84,48.29-14.82,70.54-26.65,2.78-1.48,5.54-3.01,8.28-4.58,1.67-.96.17-3.55-1.51-2.59-22.83,13.08-47.38,23.06-72.86,29.63-6.4,1.65-12.85,3.08-19.34,4.29-3.09.58-6.21,1-9.29,1.61-2.34.46-4.85,1.22-6.59,2.95-2.19,2.17-2.09,5.06-1.49,7.88.73,3.45,1.51,6.89,2.26,10.34s1.55,7.06,2.32,10.59c.71,3.23,1.26,6.56,2.32,9.7,1.8,5.35,5.73,9.13,11.3,10.33,5.3,1.15,10.67.1,15.56-2.08,10.78-4.82,18.3-14.8,24.96-24.16,14.52-20.38,25.94-42.95,33.99-66.63,8.02-23.62,12.66-48.42,13.6-73.35.12-3.07.17-6.15.18-9.23,0-1.95-2.86-1.91-3,0-.91,12.41,0,25.06-2.47,37.31-2.24,11.09-8.09,21.6-18.94,26.15-9.88,4.14-21.56,2.93-31.11-1.53-10.85-5.07-18.57-14.42-22.92-25.46-5.33-13.5-5.9-28.59-3.85-42.83.12-.81-.2-1.6-1.05-1.85-.7-.2-1.73.25-1.85,1.05h0Z"/>
  <path class="cls-1" d="M455.74,596.64c16.68-1.68,33.46-2.4,50.23-2.12,4.77.08,9.53.24,14.29.48,1.93.1,1.92-2.9,0-3-16.75-.83-33.54-.7-50.27.44-4.76.32-9.51.73-14.25,1.2-1.9.19-1.92,3.19,0,3h0Z"/>
  <path class="cls-1" d="M511.71,560.05c-12.16.95-22.46,8.79-28.67,19-7.28,11.96-8.11,26.33-5.25,39.78,1.78,8.37,4.94,16.41,8.74,24.06.86,1.73,3.45.21,2.59-1.51-6.29-12.67-10.84-26.79-9.74-41.09.91-11.71,6.31-22.99,15.56-30.38,4.79-3.83,10.63-6.36,16.77-6.84,1.91-.15,1.93-3.15,0-3h0Z"/>
  <path class="cls-1" d="M525.32,604.07c.06,11.28-1.13,22.51-3.58,33.52-.42,1.88,2.47,2.68,2.89.8,2.5-11.26,3.75-22.78,3.69-34.32-.01-1.93-3.01-1.93-3,0h0Z"/>
  <path class="cls-1" d="M536.82,561.42c2.24,5.32,2.34,11.45,0,16.76-.33.74-.22,1.61.54,2.05.64.37,1.72.21,2.05-.54,2.66-6.03,2.88-12.97.31-19.08-.31-.75-.99-1.28-1.85-1.05-.7.19-1.36,1.09-1.05,1.85h0Z"/>
  <path class="cls-1" d="M540.28,611.25c0,8.96,0,17.93,0,26.89,0,1.93,3,1.93,3,0,0-8.96,0-17.93,0-26.89,0-1.93-3-1.93-3,0h0Z"/>
  <path class="cls-1" d="M542.42,615.55c9.18-11.29,22.79-18.77,37.23-20.52,4.09-.5,8.21-.53,12.31-.13,1.92.19,1.91-2.81,0-3-15.1-1.49-30.51,3.24-42.45,12.53-3.4,2.65-6.49,5.66-9.21,9.01-1.21,1.49.9,3.62,2.12,2.12h0Z"/>
  <path class="cls-1" d="M635.59,580.43c-4.62-1.56-9.62-1.84-14.39-.81-4.12.89-8.31,2.78-10.91,6.22-2.08,2.74-2.61,6.38-1.07,9.49,1.2,2.43,3.58,4.06,5.91,5.3,2.72,1.44,5.63,2.51,8.37,3.92s5.22,3,6.56,5.71c1.78,3.57.49,7.68-1.4,10.92-2.19,3.75-5.34,6.82-8.79,9.43-8.11,6.12-18.5,11.16-28.86,8.51-1.87-.48-2.67,2.41-.8,2.89,9.05,2.31,18.3-.62,26.07-5.34,7.12-4.33,14.79-10.5,17.09-18.89,1.04-3.78.51-7.76-1.93-10.89-1.86-2.38-4.5-3.98-7.18-5.29s-5.56-2.38-8.19-3.85c-2.06-1.15-4.17-2.69-4.66-5.15-.87-4.36,3.38-7.61,6.96-8.99,5.27-2.03,11.08-2.07,16.41-.26,1.83.62,2.62-2.28.8-2.89h0Z"/>
  <path class="cls-1" d="M635.74,599.24c15.69-6.25,32.71-8.64,49.51-6.93,1.92.19,1.91-2.81,0-3-17.03-1.73-34.41.7-50.31,7.04-1.77.71-1,3.61.8,2.89h0Z"/>
  <path class="cls-1" d="M673.45,562.85c2.77,21.24-5.64,41.77-6.13,62.88-.14,5.82.4,11.65,1.85,17.3.26,1,1.36,1.3,2.2.9,14.63-7.04,30.23-11.96,46.24-14.66,1.9-.32,1.09-3.21-.8-2.89-16.27,2.74-32.09,7.8-46.95,14.96l2.2.9c-5.27-20.49,2.58-41.34,4.52-61.73.56-5.88.64-11.79-.12-17.65-.11-.81-.61-1.49-1.5-1.5-.73,0-1.6.7-1.5,1.5h0Z"/>
  <path class="cls-1" d="M798.5,505.49c-2.9,28.53,3.86,56.84,11.1,84.23,7.42,28.08,14.95,56.12,22.43,84.19.44,1.67.85,3.35,1.34,5.01.36,1.23.86,2.48,1.78,3.4,1.89,1.9,4.62,1.68,6.67.19,2.34-1.7,3.64-4.22,4.85-6.77,1.44-3.04,2.88-6.09,4.31-9.14,5.77-12.25,11.46-24.54,16.91-36.94,10.79-24.54,20.67-49.56,28.02-75.37,7.26-25.52,11.98-51.87,12.41-78.45.05-3.27.04-6.55-.04-9.82-.04-1.93-3.04-1.93-3,0,.59,25.96-3.05,51.79-9.43,76.91s-15.57,50.07-25.79,74.17c-5.11,12.06-10.51,24-16.02,35.88-2.78,5.98-5.59,11.96-8.41,17.92-1.22,2.59-2.24,5.54-4.09,7.75-.69.83-1.63,1.81-2.74,2.03-1.18.23-1.89-.76-2.28-1.74-.55-1.4-.84-2.95-1.23-4.4-.47-1.77-.94-3.53-1.41-5.3-.9-3.37-1.8-6.75-2.7-10.12-1.84-6.91-3.68-13.81-5.52-20.72-3.64-13.65-7.28-27.3-10.91-40.96-7.12-26.71-14.65-53.93-13.92-81.82.09-3.39.31-6.77.65-10.15.2-1.92-2.81-1.91-3,0h0Z"/>
  <path class="cls-1" d="M919.35,562.77c-1.51,23.92.82,48.08,6.89,71.28.76,2.9,1.58,5.79,2.45,8.66.77,2.52,1.48,5.16,2.75,7.49,2.3,4.21,6.64,6.02,11.29,5.09,10.93-2.19,12.86-14.99,14.91-24,3.15-13.83,6.29-27.65,9.44-41.48h-2.89c1.97,11.06,3.94,22.12,5.91,33.18.99,5.53,1.97,11.06,2.96,16.59.78,4.38,1.01,9.7,3.88,13.32,2.57,3.24,8.01,4.12,10.58.4,1.1-1.59-1.5-3.09-2.59-1.51-.79,1.14-2.39,1.13-3.57.73-1.69-.57-2.71-2.11-3.32-3.71-.71-1.88-1-3.91-1.35-5.88-.45-2.52-.9-5.04-1.35-7.56-1.75-9.84-3.51-19.68-5.26-29.52-1-5.61-2-11.22-3-16.83-.26-1.47-2.58-1.39-2.89,0-2.65,11.64-5.3,23.29-7.95,34.93-1.22,5.38-2.26,10.85-3.78,16.15-1.24,4.33-3.21,8.9-7.35,11.16-3.62,1.98-8.3,1.87-10.68-1.89-1.34-2.11-1.98-4.62-2.71-6.99-.84-2.72-1.62-5.45-2.35-8.19-2.91-10.93-5-22.08-6.2-33.33-1.35-12.64-1.62-25.38-.82-38.07.12-1.93-2.88-1.92-3,0h0Z"/>
  <path class="cls-1" d="M986.77,622.06c12.55-1.86,25.24-3.82,36.96-8.92,5.41-2.35,11.11-5.32,14.96-9.91,3.31-3.96,5.46-9.76,2-14.35-2.67-3.55-7.56-4.31-11.65-3.2-4.8,1.3-8.08,5.03-9.32,9.79-1.45,5.58-.19,11.61,1.95,16.85s4.86,9.64,8.33,13.81c7.84,9.41,18.96,16.12,31.02,18.36,1.89.35,2.7-2.54.8-2.89-9.66-1.8-18.61-6.5-25.69-13.3-3.53-3.39-6.57-7.26-8.99-11.53-2.49-4.39-4.52-9.31-4.94-14.38-.38-4.46.56-9.86,4.61-12.47,2.88-1.86,7.09-2.51,10.1-.56,4.2,2.73,2.46,8.23-.08,11.45-3.39,4.28-8.56,7-13.44,9.23-11.74,5.36-24.75,7.26-37.4,9.13-1.9.28-1.09,3.17.8,2.89h0Z"/>
  <path class="cls-1" d="M520.59,734.53c-4.83,17.05-9.35,34.18-13.57,51.39s-8.12,34.49-11.71,51.84c-2.02,9.75-3.94,19.53-5.77,29.32-.35,1.89,2.54,2.7,2.89.8,3.25-17.42,6.8-34.78,10.67-52.06,3.87-17.29,8.04-34.51,12.53-51.65,2.52-9.64,5.14-19.25,7.85-28.83.53-1.86-2.37-2.66-2.89-.8h0Z"/>
  <path class="cls-1" d="M525.46,735.67c13.14-.8,26.28-1.61,39.42-2.41,6.4-.39,12.8-.87,19.2-1.17,2.23-.11,4.96-.21,6.74,1.37,1.69,1.5,1.61,3.74.95,5.73-1.54,4.65-5.8,8.04-9.52,10.97-3.91,3.07-8.17,5.71-12.59,7.97-9.13,4.66-19.03,7.66-29.02,9.81-11.37,2.45-22.93,3.81-34.48,5.05-.9.1-1.79.89-1.45,1.9.93,2.76,3.61,4.7,6.57,4.38,1.9-.21,1.92-3.21,0-3-1.6.17-3.14-.59-3.68-2.17l-1.45,1.9c21.47-2.3,43.63-4.89,63.3-14.41,4.82-2.33,9.43-5.1,13.7-8.35s8.49-6.61,10.74-11.36c1.02-2.15,1.65-4.55,1.13-6.92s-2.42-4.31-4.71-5.17c-2.53-.95-5.33-.73-7.98-.57-3.41.21-6.82.42-10.23.63-15.55.95-31.1,1.9-46.65,2.86-1.92.12-1.93,3.12,0,3h0Z"/>
  <path class="cls-1" d="M669.63,739.59c-4.59-9.93-17-15.49-27.47-12.27-10.45,3.22-16.85,14.76-15.07,25.36,2.19,13.06,16.4,20.02,27.23,24.83,3.53,1.57,7.13,2.99,10.78,4.25,3.43,1.18,6.95,2.44,10.56,2.92,3.05.41,6.21.01,8.74-1.85,2.03-1.5,3.37-3.65,4.16-6.02,1.91-5.81.61-12.17-1.51-17.71-2.76-7.21-6.86-13.82-12.08-19.5-1.09-1.18-2.77.09-2.51,1.46,1.81,9.31,7.08,17.9,14.48,23.83,3.83,3.07,8.11,5.34,12.76,6.92s9.55,2.55,14.32,3.81c5.37,1.42,10.77,3.26,15.06,6.91,1.46,1.24,3.6-.87,2.12-2.12-7.62-6.48-17.67-7.77-26.99-10.36-4.59-1.28-8.97-2.98-12.93-5.66s-7.15-5.89-9.78-9.65c-3.04-4.36-5.14-9.26-6.16-14.47l-2.51,1.46c4.19,4.56,7.62,9.78,10.17,15.43,2.13,4.73,3.75,9.78,3.39,15.02-.3,4.37-2.38,8.92-7.18,9.6-3.21.46-6.53-.73-9.55-1.67-3.19-.99-6.35-2.11-9.46-3.34-6.01-2.39-11.99-5.17-17.46-8.63-4.76-3.01-9.3-6.9-11.59-12.17-3.79-8.74.46-19.86,8.68-24.41,9.67-5.35,22.69-.19,27.2,9.56.81,1.75,3.4.23,2.59-1.51h0Z"/>
  <path class="cls-1" d="M769.6,745.37c2.22-.34,2.85-2.54,2.34-4.47-.64-2.45-2.38-3.98-4.34-5.41-5.58-4.07-11.16-8.14-16.74-12.21-4.26-3.11-9.29-6.37-14.61-3.7-3.95,1.99-6.03,6.58-6.97,10.68-1.25,5.43-.79,11.23-.04,16.7.85,6.25,2.5,12.37,4.92,18.2,2.16,5.19,4.76,11.06,9.41,14.5,4.08,3.02,9.33,3.03,13.86,1.05,5.35-2.34,9.12-6.98,10.98-12.44,2.26-6.63,1.86-13.84,1.43-20.72l-2.8.76c7.79,17.22,7.29,37,2.06,54.87-5.45,18.61-16.2,35.13-28.38,50.02-6.95,8.49-14.41,16.55-21.94,24.54l2.36.3c-2.37-3.2-2.57-7.25-2.18-11.09.36-3.48,1.37-6.93,2.85-10.1,3.08-6.6,8.02-12.21,13.74-16.66,13.47-10.45,30.81-13.74,46.98-17.71,6.7-1.65,17.06-3.61,18.48-11.85.33-1.89-2.56-2.7-2.89-.8-.58,3.33-3.23,5.31-6.13,6.67-3.49,1.64-7.4,2.39-11.13,3.3-8.66,2.11-17.38,4.05-25.81,6.99-14.54,5.07-28.81,13.85-35.67,28.21-1.78,3.72-2.94,7.66-3.39,11.76-.48,4.36-.12,9.15,2.57,12.79.55.74,1.63,1.07,2.36.3,13.67-14.51,27.25-29.36,37.71-46.42,10.18-16.61,17.1-35.48,17.36-55.13.15-10.84-1.87-21.62-6.35-31.52-.61-1.36-2.88-.68-2.8.76.59,9.57,1.31,21.49-6.96,28.2-3.05,2.47-7.27,4.09-11.2,3.09-4.77-1.22-7.42-5.86-9.5-9.93-5-9.78-7.62-20.78-7.62-31.76,0-6.49,3.1-18.78,12.18-14.84,2.77,1.2,5.18,3.27,7.6,5.03,2.72,1.99,5.45,3.97,8.17,5.96,1.4,1.02,2.79,2.03,4.19,3.05,1.22.89,2.58,1.72,3.71,2.73.48.43,2.61,3.22,1.39,3.41-1.9.29-1.09,3.19.8,2.89h0Z"/>
  <path class="cls-1" d="M796.5,755.1c10.37,7.88,24.21,4.66,35.18-.07,3.03-1.31,5.98-2.79,8.86-4.4,2.68-1.49,5.34-3.27,6.59-6.19,2.33-5.44-.67-11.65-5.34-14.73-5.65-3.73-13.28-3.8-19.76-2.94-3.54.47-7.01,1.33-10.35,2.61-3.01,1.16-6.3,2.51-8.64,4.8-2.54,2.48-2.82,5.72-2.86,9.08-.05,4.16-.1,8.32-.15,12.49-.09,7.06-1.07,15.01,2.07,21.59,5.48,11.48,20.64,12.6,31.73,12.64,1.93,0,1.93-2.99,0-3-4.97-.02-9.99-.25-14.85-1.37-4.39-1.01-8.78-2.76-11.87-6.16-4.12-4.51-4.23-10.72-4.16-16.49.08-7.15,0-14.33.28-21.47.06-1.39.22-2.81.97-4.01.8-1.27,2.08-2.16,3.35-2.89,2.74-1.57,5.73-2.72,8.76-3.58,5.98-1.7,12.78-2.4,18.87-.87,5.04,1.27,9.9,4.94,9.75,10.63-.07,2.84-1.86,4.82-4.16,6.27s-4.84,2.72-7.32,3.91c-10.74,5.17-24.92,9.56-35.43,1.57-1.54-1.17-3.03,1.44-1.51,2.59h0Z"/>
  <path class="cls-1" d="M1041.79,700.73c-9.52,19.8-18.96,39.64-28.56,59.41-7.72,15.9-15.91,31.9-27.26,45.57-6.27,7.55-13.5,14.28-21.82,19.52-1.63,1.03-.13,3.62,1.51,2.59,15.09-9.51,26.44-23.57,35.58-38.69,10.1-16.69,18.04-34.67,26.48-52.23,5.55-11.55,11.1-23.1,16.65-34.65.83-1.73-1.75-3.26-2.59-1.51h0Z"/>
  <path class="cls-1" d="M996.47,717.14c8.99,28.37,18.97,56.42,29.95,84.09,3.1,7.82,6.28,15.6,9.54,23.36.32.75.99,1.27,1.85,1.05.71-.19,1.36-1.1,1.05-1.85-11.53-27.44-22.08-55.28-31.63-83.47-2.7-7.97-5.32-15.96-7.86-23.98-.58-1.83-3.48-1.05-2.89.8h0Z"/>
  <path class="cls-1" d="M1049.85,702.8c3.23,32.43,4.8,65.01,4.69,97.6-.03,9.26-.2,18.52-.5,27.78-.06,1.93,2.94,1.93,3,0,1.05-32.57.45-65.19-1.84-97.7-.65-9.24-1.44-18.47-2.35-27.69-.19-1.9-3.19-1.92-3,0h0Z"/>
  <path class="cls-1" d="M1051.54,703.22c9-2.8,18.54,1.6,24.55,8.36,6.87,7.74,9.28,18.57,10.34,28.58,1.27,11.96,1.16,24.11-.14,36.06-1.19,10.87-2.97,22.41-8.07,32.23s-14.39,17.93-25.8,17.54c-1.93-.07-1.93,2.93,0,3,10.52.36,20.02-6.15,25.76-14.59,6.55-9.64,8.89-21.58,10.46-32.93,1.77-12.84,2.16-25.86,1.04-38.77-.95-10.93-3.1-22.44-9.93-31.36s-18.18-14.37-29-11c-1.84.57-1.05,3.47.8,2.89h0Z"/>
</svg>